<svg xmlns="http://www.w3.org/2000/svg" viewBox="0 0 32 32" width="32" height="32"><rect x="1" y="1" width="30" height="30" rx="7" fill="#0ac18e" stroke="#111418" stroke-width="2"/><path transform="translate(5.000 20.461) scale(0.01222 -0.01222)" fill="#111418" stroke="#111418" stroke-width="55" stroke-linejoin="round" d="M93 0L93 730L300 730Q400 730 456.5 680Q513 630 513 541Q513 491 492 454Q471 417 432.5 397Q394 377 340 378L340 393Q398 394 440.5 371Q483 348 506.5 305Q530 262 530 203Q530 141 504 95Q478 49 430 24.5Q382 0 315 0ZM181 81L305 81Q368 81 404.5 114.5Q441 148 441 206Q441 266 404.5 303.5Q368 341 305 341L181 341ZM181 419L299 419Q357 419 390.5 450Q424 481 424 534Q424 587 391 618Q358 649 300 649L181 649ZM904 -10Q838 -10 789.5 15Q741 40 714.5 87.5Q688 135 688 200L688 530Q688 596 714.5 643Q741 690 789.5 715Q838 740 904 740Q970 740 1018 714.5Q1066 689 1092 642Q1118 595 1118 530L1028 530Q1028 592 995.5 625.5Q963 659 904 659Q845 659 811.5 626Q778 593 778 531L778 200Q778 138 811.5 104.5Q845 71 904 71Q963 71 995.5 104.5Q1028 138 1028 200L1118 200Q1118 136 1092 88.5Q1066 41 1018 15.5Q970 -10 904 -10ZM1293 0L1293 730L1383 730L1383 418L1617 418L1617 730L1707 730L1707 0L1617 0L1617 336L1383 336L1383 0Z"/></svg>
