<?xml version="1.0" standalone="no"?>
<!DOCTYPE svg PUBLIC "-//W3C//DTD SVG 20010904//EN"
 "http://www.w3.org/TR/2001/REC-SVG-20010904/DTD/svg10.dtd">
<svg version="1.0" xmlns="http://www.w3.org/2000/svg"
 width="1250.000000pt" height="1250.000000pt" viewBox="0 0 1250.000000 1250.000000"
 preserveAspectRatio="xMidYMid meet">
<metadata>
Created by potrace 1.14, written by Peter Selinger 2001-2017
</metadata>
<g transform="translate(0.000000,1250.000000) scale(0.100000,-0.100000)"
fill="#000000" stroke="none">
<path d="M6255 11733 c4 -10 8 -26 10 -36 2 -9 6 -21 9 -25 5 -8 15 -55 21
-97 2 -11 4 -20 5 -20 14 0 33 -375 21 -400 -3 -5 -6 -23 -7 -40 0 -16 -4 -46
-7 -65 -3 -19 -9 -56 -12 -83 -4 -26 -11 -50 -16 -53 -5 -3 -7 -9 -5 -13 5 -8
-43 -183 -65 -236 -7 -16 -13 -36 -15 -43 -4 -22 -65 -166 -80 -189 -8 -13
-12 -23 -9 -23 6 0 -114 -239 -125 -250 -3 -3 -13 -21 -22 -40 -10 -19 -24
-44 -30 -55 -7 -11 -58 -92 -113 -180 -55 -88 -103 -164 -107 -170 -8 -10
-115 -161 -140 -199 -15 -22 -218 -295 -233 -314 -5 -7 -14 -18 -20 -25 -61
-74 -85 -107 -78 -107 4 0 3 -4 -4 -8 -6 -4 -52 -59 -102 -122 -50 -63 -97
-122 -104 -130 -6 -8 -28 -35 -47 -60 -19 -25 -37 -47 -40 -50 -6 -5 -64 -77
-125 -155 -16 -21 -35 -43 -40 -49 -6 -6 -26 -31 -45 -56 -19 -25 -37 -47 -40
-50 -5 -4 -70 -85 -93 -115 -4 -5 -17 -21 -28 -35 -11 -14 -30 -38 -42 -54
-12 -15 -39 -49 -60 -75 -20 -25 -41 -51 -45 -56 -13 -18 -86 -110 -92 -115
-3 -3 -18 -23 -35 -45 -16 -22 -33 -44 -37 -50 -4 -5 -20 -26 -35 -45 -16 -19
-49 -62 -73 -95 -25 -33 -55 -71 -67 -85 -13 -14 -23 -28 -23 -31 0 -5 -37
-56 -68 -94 -5 -6 -45 -62 -90 -125 -45 -63 -85 -120 -90 -126 -5 -5 -22 -30
-38 -55 -16 -24 -31 -46 -34 -49 -14 -14 -70 -102 -70 -110 0 -6 -4 -10 -9
-10 -5 0 -14 -13 -21 -30 -7 -16 -16 -30 -21 -30 -5 0 -9 -5 -9 -11 0 -6 -11
-25 -25 -43 -14 -18 -25 -38 -25 -44 0 -7 -4 -12 -10 -12 -5 0 -10 -4 -10 -9
0 -5 -23 -46 -50 -90 -28 -44 -50 -85 -50 -90 0 -5 -3 -11 -7 -13 -9 -3 -44
-62 -71 -118 -9 -19 -20 -37 -23 -40 -3 -3 -23 -39 -43 -80 -21 -41 -42 -82
-47 -90 -10 -16 -111 -231 -124 -265 -5 -11 -7 -23 -7 -27 1 -5 -3 -8 -9 -8
-5 0 -8 -4 -4 -9 3 -5 -2 -17 -11 -25 -8 -9 -13 -16 -10 -16 3 0 -9 -33 -25
-72 -17 -40 -32 -80 -34 -88 -2 -8 -13 -42 -25 -75 -39 -108 -79 -248 -74
-257 3 -4 1 -8 -4 -8 -5 0 -9 -6 -10 -12 -1 -11 -10 -53 -27 -123 -21 -87 -46
-237 -41 -242 3 -3 1 -13 -4 -22 -4 -9 -12 -53 -16 -96 -9 -97 -9 -583 0 -715
5 -77 37 -340 52 -425 6 -37 14 -80 25 -130 6 -27 12 -61 14 -75 5 -32 50
-206 75 -290 11 -36 19 -68 19 -73 1 -4 8 -21 16 -37 8 -16 15 -32 14 -35 -1
-6 12 -41 43 -120 11 -27 21 -54 23 -60 6 -29 162 -356 174 -365 4 -3 18 -26
31 -53 14 -26 28 -47 32 -47 5 0 8 -5 8 -10 0 -25 186 -285 284 -399 54 -62
289 -295 345 -341 112 -94 381 -287 381 -274 0 3 14 -6 31 -20 17 -14 35 -26
41 -26 6 0 19 -6 27 -14 31 -27 362 -189 461 -225 19 -7 44 -17 55 -21 91 -37
307 -110 335 -114 8 -1 22 -5 30 -8 8 -4 29 -10 45 -14 17 -4 32 -8 35 -9 45
-12 201 -48 220 -50 14 -2 25 -4 25 -5 0 -5 105 -22 128 -22 9 1 17 -2 17 -6
0 -4 12 -8 28 -8 15 -1 43 -4 62 -7 19 -3 58 -8 85 -11 28 -4 61 -9 75 -11 14
-3 55 -7 92 -10 37 -3 77 -8 90 -11 34 -6 271 -16 438 -17 141 0 313 8 401 19
68 9 282 45 288 49 3 1 24 6 46 9 70 11 218 52 300 83 22 8 49 17 60 19 11 2
36 10 55 18 19 8 62 24 95 37 111 42 335 147 346 162 3 5 8 7 10 6 2 -2 45 20
94 49 338 197 622 427 870 704 56 63 58 66 136 163 64 80 218 305 236 345 4 8
9 17 12 20 16 13 152 288 177 355 10 28 23 53 28 57 6 4 8 8 4 8 -4 0 4 30 19
68 26 69 60 179 69 221 3 13 12 51 20 85 8 34 17 73 19 88 2 15 9 53 14 85 25
137 33 414 17 588 -8 86 -39 257 -63 345 -8 30 -16 62 -18 70 -2 8 -4 16 -5
18 -2 1 -3 5 -4 10 -13 54 -97 266 -110 274 -6 4 -8 8 -3 8 4 0 -9 31 -28 70
-19 38 -35 73 -34 77 0 3 -6 10 -15 15 -9 5 -14 13 -11 19 4 5 1 9 -4 9 -6 0
-11 5 -11 12 0 11 -160 257 -183 280 -7 7 -26 30 -41 51 -16 21 -31 36 -33 33
-3 -2 -6 -42 -8 -88 -4 -108 -15 -241 -21 -270 -3 -13 -7 -41 -8 -63 -2 -22
-7 -51 -10 -65 -3 -14 -8 -36 -10 -50 -18 -103 -79 -330 -106 -395 -7 -16 -14
-34 -15 -40 -1 -11 -3 -14 -45 -115 -15 -36 -31 -75 -35 -87 -3 -13 -11 -23
-17 -23 -6 0 -9 -3 -5 -6 3 -4 -5 -26 -18 -50 -14 -24 -21 -44 -17 -44 4 0 2
-4 -4 -8 -6 -4 -26 -36 -46 -72 -45 -83 -96 -164 -172 -270 -59 -83 -80 -109
-121 -155 -11 -13 -36 -42 -55 -65 -64 -77 -191 -200 -290 -280 -30 -25 -57
-47 -60 -50 -34 -34 -310 -214 -310 -202 0 4 -4 2 -8 -5 -10 -16 -259 -133
-297 -139 -5 -1 -21 -6 -35 -12 -14 -5 -28 -10 -32 -11 -4 -1 -27 -8 -50 -17
-44 -15 -164 -45 -176 -43 -4 1 -9 0 -12 -1 -27 -10 -165 -23 -255 -23 -90 0
-300 16 -300 23 0 1 -20 4 -45 6 -47 4 -281 65 -345 88 -103 39 -135 52 -170
70 -22 11 -46 21 -53 22 -8 1 -21 9 -30 18 -10 8 -20 15 -25 15 -19 1 -205
116 -254 156 -7 5 -25 19 -39 30 -15 11 -37 30 -50 42 -13 12 -24 20 -24 18 0
-8 -167 163 -210 215 -25 30 -50 61 -57 68 -7 7 -20 26 -30 42 -9 17 -21 30
-25 30 -4 0 -8 6 -8 14 0 7 -7 19 -15 26 -8 7 -21 24 -29 39 -96 180 -129 248
-156 316 -34 85 -78 215 -84 252 -3 13 -8 27 -11 33 -4 6 -9 25 -11 43 -6 40
-11 65 -18 97 -14 59 -30 179 -41 309 -4 36 -8 68 -11 72 -2 4 0 10 5 13 4 3
5 23 2 43 -4 21 -6 56 -5 78 14 275 14 272 49 440 28 131 43 195 52 215 3 8 8
24 10 35 2 11 8 22 13 23 6 2 7 8 4 13 -3 6 -1 22 4 37 6 15 14 36 18 47 4 11
8 22 9 25 15 45 118 297 145 355 68 149 227 458 277 538 13 21 28 48 34 60 5
12 18 36 29 52 11 17 23 37 27 45 11 24 212 358 260 433 24 37 43 70 43 73 0
3 17 31 38 62 20 32 42 66 49 77 47 79 169 275 184 297 10 15 19 30 19 32 0 3
16 30 35 60 19 30 35 60 35 66 0 5 4 10 9 10 5 0 14 14 21 30 7 17 16 30 21
30 5 0 8 3 7 8 -2 4 26 57 62 117 36 61 66 116 68 123 2 6 8 12 13 12 6 0 8 4
4 9 -3 5 -1 12 4 15 5 3 23 33 41 67 44 85 70 132 82 147 6 6 7 12 3 12 -4 0
-2 6 4 14 13 16 126 241 121 241 -2 0 8 20 21 45 14 25 40 81 58 125 18 44 40
94 49 110 9 17 14 30 12 30 -2 0 8 32 22 70 35 92 41 108 44 120 1 6 9 30 17
55 18 55 44 146 51 180 3 14 9 40 15 59 6 18 10 36 9 40 0 3 1 8 2 11 1 3 4
16 5 30 2 14 6 36 9 50 37 167 38 479 2 670 -2 14 -7 43 -11 65 -4 22 -10 49
-14 60 -4 11 -20 58 -36 105 -15 46 -37 105 -49 130 -11 25 -20 47 -21 50 -2
31 -214 360 -236 368 -5 2 -9 8 -9 12 0 13 -78 97 -197 215 -123 120 -153 145
-297 253 -61 45 -116 87 -123 92 -18 15 -26 12 -18 -7z"/>
<path d="M4685 10769 c-4 -5 -9 -27 -11 -48 -3 -21 -18 -87 -35 -147 -16 -60
-31 -114 -32 -121 -2 -7 -6 -16 -10 -19 -4 -4 -7 -13 -7 -20 0 -7 -5 -25 -11
-41 -6 -15 -10 -28 -9 -28 2 0 -61 -139 -97 -215 -20 -41 -66 -124 -103 -185
-36 -60 -73 -121 -81 -135 -14 -24 -21 -34 -46 -64 -7 -8 -13 -19 -13 -24 0
-4 -8 -17 -18 -28 -9 -10 -40 -50 -67 -89 -46 -66 -55 -77 -80 -108 -5 -7 -23
-30 -40 -52 -16 -22 -35 -47 -42 -55 -7 -8 -25 -31 -40 -51 -16 -20 -46 -58
-68 -84 -22 -26 -66 -80 -99 -119 -32 -39 -77 -93 -101 -121 -215 -253 -295
-349 -343 -413 -9 -12 -21 -28 -27 -35 -34 -41 -65 -87 -65 -95 0 -6 -4 -12
-8 -14 -25 -9 -171 -253 -271 -449 -93 -184 -229 -537 -236 -614 -1 -5 -6 -26
-13 -45 -6 -19 -14 -48 -17 -65 -8 -38 -13 -60 -15 -60 -1 0 -4 -20 -6 -45 -3
-25 -10 -50 -15 -56 -5 -6 -7 -13 -4 -16 3 -2 -2 -45 -9 -94 -23 -142 -28
-205 -30 -362 -4 -203 9 -345 51 -552 8 -41 17 -86 19 -99 10 -52 18 -39 51
90 43 168 40 158 53 199 7 19 15 49 20 65 11 40 99 292 115 330 7 17 23 57 36
90 13 33 28 63 32 66 5 3 8 8 7 10 -1 2 3 17 9 32 6 16 11 30 11 32 0 4 99
217 110 235 5 8 29 56 54 105 52 102 103 194 118 213 6 6 7 12 2 12 -5 0 -4 4
2 8 6 4 17 21 26 37 19 37 110 188 117 195 4 3 11 14 17 25 27 50 39 70 45 75
3 3 32 46 64 95 32 50 61 92 64 95 3 3 30 41 60 85 58 84 173 240 308 415 78
103 227 319 253 370 7 14 16 27 19 30 3 3 11 14 17 25 46 87 60 111 64 115 10
10 120 230 115 230 -3 0 1 10 9 23 17 26 106 235 111 259 2 9 9 26 15 38 6 12
13 29 15 38 2 9 10 37 18 62 16 48 47 156 52 180 2 8 4 15 5 15 1 0 3 11 5 25
2 14 6 36 10 50 35 140 55 463 35 572 -5 23 -11 63 -15 88 -4 24 -9 48 -12 52
-2 5 -7 20 -9 35 -3 15 -9 32 -15 39 -5 6 -6 14 -2 17 3 4 4 7 0 7 -3 0 -9 -5
-12 -11z"/>
<path d="M7655 8672 c-5 -9 -9 -21 -11 -27 -1 -5 -12 -32 -25 -60 -12 -27 -21
-52 -20 -54 2 -2 -1 -7 -6 -10 -4 -3 -34 -58 -66 -121 -32 -63 -71 -137 -88
-165 -16 -27 -32 -58 -35 -67 -4 -10 -10 -18 -15 -18 -5 0 -9 -5 -9 -11 0 -21
-284 -460 -302 -467 -4 -2 -8 -10 -8 -18 0 -8 -4 -14 -10 -14 -5 0 -10 -6 -10
-13 0 -7 -11 -24 -25 -39 -14 -15 -25 -30 -25 -33 0 -6 -38 -59 -65 -92 -21
-26 -31 -40 -69 -95 -22 -32 -43 -58 -48 -58 -4 0 -8 -5 -8 -10 0 -8 -75 -115
-137 -195 -5 -5 -33 -44 -63 -85 -30 -41 -57 -77 -60 -80 -3 -3 -16 -21 -30
-40 -13 -19 -28 -39 -32 -45 -26 -31 -188 -256 -188 -261 0 -3 -16 -25 -35
-48 -19 -24 -35 -48 -35 -54 0 -6 -4 -12 -8 -14 -9 -3 -131 -188 -198 -298
-21 -36 -45 -71 -51 -78 -7 -7 -13 -19 -13 -25 0 -7 -11 -29 -25 -50 -14 -20
-22 -37 -18 -37 4 0 3 -4 -3 -8 -24 -16 -189 -387 -198 -445 -1 -7 -5 -18 -10
-25 -4 -7 -5 -16 -2 -19 3 -3 1 -12 -5 -19 -6 -7 -12 -25 -13 -41 -2 -15 -6
-35 -10 -44 -4 -9 -6 -20 -5 -25 1 -5 1 -11 0 -14 -14 -36 -17 -313 -6 -435
10 -106 13 -130 15 -130 1 0 4 -16 6 -35 9 -70 66 -282 93 -345 60 -140 147
-292 212 -369 46 -54 160 -166 168 -166 5 0 11 -3 13 -7 4 -11 85 -73 94 -73
4 0 15 -6 23 -14 23 -19 149 -85 196 -102 229 -84 415 -118 640 -117 182 1
367 39 488 100 15 7 27 10 27 6 0 -5 4 -3 8 2 4 6 34 24 67 40 33 17 65 34 70
38 6 4 38 27 71 50 200 138 373 328 521 572 49 82 141 254 142 268 0 4 8 24
17 45 9 20 20 46 24 57 4 11 15 38 23 60 9 22 21 60 28 85 6 25 14 50 17 55 7
12 9 17 18 65 3 19 10 40 15 46 5 7 9 16 7 20 -1 7 10 77 17 104 1 3 5 28 10
55 4 28 9 59 11 70 15 78 26 395 15 395 -3 0 -6 37 -7 83 0 80 -6 142 -24 282
-20 155 -19 145 -55 350 -2 11 -6 32 -9 48 -3 15 -8 39 -11 55 -17 81 -90 373
-121 477 -20 66 -38 127 -39 135 -2 8 -4 16 -5 18 -2 1 -3 5 -5 10 -1 4 -4 14
-8 22 -3 8 -11 33 -17 55 -6 22 -15 49 -20 60 -4 11 -13 36 -20 55 -7 19 -16
44 -20 55 -4 11 -16 43 -25 70 -10 28 -23 64 -30 80 -7 17 -23 55 -35 85 -13
30 -29 70 -37 87 -7 18 -13 34 -12 35 0 3 -41 89 -129 268 -26 52 -50 97 -54
98 -5 2 -8 12 -8 23 0 10 -4 19 -9 19 -5 0 -14 15 -22 33 -7 17 -16 34 -19 37
-3 3 -19 28 -35 55 -57 100 -210 326 -234 345 -4 3 -16 17 -28 32 -18 25 -22
26 -28 10z"/>
</g>
</svg>
